<svg width="71" height="71" viewBox="0 0 71 71" fill="none" xmlns="http://www.w3.org/2000/svg">
<circle cx="35.5" cy="35.5" r="35" transform="rotate(-90 35.5 35.5)" stroke="#232323"/>
<path d="M34.5 48.5166C34.5 49.0689 34.9477 49.5166 35.5 49.5166C36.0523 49.5166 36.5 49.0689 36.5 48.5166L34.5 48.5166ZM36.2071 20.5937C35.8166 20.2031 35.1834 20.2031 34.7929 20.5937L28.4289 26.9576C28.0384 27.3482 28.0384 27.9813 28.4289 28.3718C28.8195 28.7624 29.4526 28.7624 29.8431 28.3718L35.5 22.715L41.1569 28.3718C41.5474 28.7624 42.1805 28.7624 42.5711 28.3718C42.9616 27.9813 42.9616 27.3482 42.5711 26.9576L36.2071 20.5937ZM36.5 48.5166L36.5 21.3008L34.5 21.3008L34.5 48.5166L36.5 48.5166Z" fill="#232323"/>
</svg>
