<svg width="17" height="17" viewBox="0 0 17 17" fill="none" xmlns="http://www.w3.org/2000/svg">
<path d="M15.9414 15.1211C15.9952 15.175 16.038 15.2389 16.0671 15.3093C16.0963 15.3797 16.1113 15.4551 16.1113 15.5313C16.1113 15.6074 16.0963 15.6829 16.0671 15.7532C16.038 15.8236 15.9952 15.8875 15.9414 15.9414C15.8875 15.9953 15.8236 16.038 15.7532 16.0671C15.6828 16.0963 15.6074 16.1113 15.5312 16.1113C15.455 16.1113 15.3796 16.0963 15.3092 16.0671C15.2389 16.038 15.1749 15.9953 15.1211 15.9414L8.49997 9.33008L1.87888 15.9414C1.7701 16.0502 1.62256 16.1113 1.46872 16.1113C1.31488 16.1113 1.16734 16.0502 1.05856 15.9414C0.949784 15.8326 0.888672 15.6851 0.888672 15.5313C0.888672 15.3774 0.949784 15.2299 1.05856 15.1211L7.66989 8.5L1.05856 1.87891C0.949784 1.77013 0.888672 1.62259 0.888672 1.46875C0.888672 1.31491 0.949784 1.16737 1.05856 1.05859C1.16734 0.949814 1.31488 0.888702 1.46872 0.888702C1.62256 0.888702 1.7701 0.949814 1.87888 1.05859L8.49997 7.66992L15.1211 1.05859C15.2298 0.949814 15.3774 0.888702 15.5312 0.888702C15.6851 0.888702 15.8326 0.949814 15.9414 1.05859C16.0502 1.16737 16.1113 1.31491 16.1113 1.46875C16.1113 1.62259 16.0502 1.77013 15.9414 1.87891L9.33005 8.5L15.9414 15.1211Z" fill="black"/>
</svg>
