<svg width="119" height="56" viewBox="0 0 119 56" fill="none" xmlns="http://www.w3.org/2000/svg">
<rect x="7" y="30" width="112" height="3" fill="#EAAFDA" fill-opacity="0.85"/>
<path d="M1 45.5L7.52055 31.5M36 45.5L31.5 36.5M7.52055 31.5L18 9L26.5 25.5M7.52055 31.5H15H24.5" stroke="#232323" stroke-width="1.5"/>
<path d="M83.688 46.96C80.328 46.96 77.24 46.144 74.424 44.512C71.608 42.848 69.368 40.576 67.704 37.696C66.072 34.784 65.256 31.52 65.256 27.904C65.256 24.416 66.104 21.232 67.8 18.352C69.528 15.472 71.816 13.2 74.664 11.536C77.544 9.872 80.6 9.04 83.832 9.04C86.072 9.04 87.848 9.248 89.16 9.664C90.472 10.048 91.992 10.736 93.72 11.728V13.504C92.088 12.384 90.568 11.6 89.16 11.152C87.784 10.672 86.056 10.432 83.976 10.432C80.808 10.432 77.912 11.248 75.288 12.88C72.696 14.48 70.632 16.64 69.096 19.36C67.592 22.048 66.84 24.944 66.84 28.048C66.84 31.184 67.608 34.096 69.144 36.784C70.68 39.472 72.712 41.616 75.24 43.216C77.8 44.784 80.552 45.568 83.496 45.568C85.608 45.568 87.448 45.328 89.016 44.848C90.584 44.336 92.152 43.552 93.72 42.496V44.272C92.184 45.2 90.6 45.872 88.968 46.288C87.368 46.736 85.608 46.96 83.688 46.96Z" fill="#232323"/>
<path d="M27.875 28.9219V37.0156H26.6562V27.1719L28.1562 26.9531L30.5625 33.2031L33.375 27.1406L34.5625 27.2344L35.3125 37.2656H34.25L33.6875 29.0469L30.8438 34.8594L30.1562 34.7656L27.875 28.9219ZM43.1562 35.9219V37.0156H37.2188L36.6562 36.2656V28.0156L37.2812 27.1094H42.3125V28.0156H37.75V31.5156H42.625V32.3594H37.6875V35.9219H43.1562ZM44.6875 36.2031V26.9844H45.7812V35.8281H51.4062V36.9531H45.3125L44.6875 36.2031ZM56.4688 36.6719H52.75V35.7969H53.9688V27.9844H52.2188V27.1406L55.6562 26.9219V27.8281L54.5312 27.9219V35.7344H56.4688V36.6719ZM59.9688 32.0469H62.375L61.0312 28.5156L59.9688 32.0469ZM58.5 37.1719L57.4375 36.9219L60.6562 26.7344H61.3438L65.125 36.9844L64.125 37.2656L62.6562 33.0156H59.7188L58.5 37.1719Z" fill="#232323"/>
<path d="M80.5938 31.7656C80.5 31.2448 80.375 30.7552 80.2188 30.2969C80.0625 29.8385 79.8698 29.4427 79.6406 29.1094C79.4219 28.7656 79.1667 28.4948 78.875 28.2969C78.5833 28.099 78.2552 28 77.8906 28C77.4844 28 77.1354 28.099 76.8438 28.2969C76.5521 28.4844 76.3073 28.7344 76.1094 29.0469C75.9219 29.3594 75.7812 29.7135 75.6875 30.1094C75.5938 30.5052 75.5469 30.9115 75.5469 31.3281C75.5469 31.8177 75.599 32.3438 75.7031 32.9062C75.8073 33.4688 75.9688 33.9896 76.1875 34.4688C76.4062 34.9375 76.6823 35.3281 77.0156 35.6406C77.3594 35.9531 77.7604 36.1094 78.2188 36.1094C78.6667 36.1094 79.0469 36.0104 79.3594 35.8125C79.6719 35.6042 79.9219 35.3385 80.1094 35.0156C80.3073 34.6823 80.4479 34.3125 80.5312 33.9062C80.6146 33.5 80.6562 33.099 80.6562 32.7031C80.6562 32.5469 80.651 32.3906 80.6406 32.2344C80.6302 32.0677 80.6146 31.9115 80.5938 31.7656ZM81.625 31.6406C81.6458 31.8073 81.6615 31.974 81.6719 32.1406C81.6823 32.2969 81.6875 32.4583 81.6875 32.625C81.6875 33.1771 81.6198 33.7292 81.4844 34.2812C81.349 34.8229 81.1458 35.3125 80.875 35.75C80.6042 36.1875 80.2604 36.5417 79.8438 36.8125C79.4271 37.0833 78.9375 37.2188 78.375 37.2188C77.8646 37.2188 77.375 37.0885 76.9062 36.8281C76.4375 36.5573 76.0208 36.1771 75.6562 35.6875C75.3021 35.1875 75.0156 34.5885 74.7969 33.8906C74.5885 33.1927 74.4844 32.4062 74.4844 31.5312C74.4844 30.9583 74.5521 30.401 74.6875 29.8594C74.8229 29.3177 75.0312 28.8333 75.3125 28.4062C75.5938 27.9792 75.9479 27.6354 76.375 27.375C76.8021 27.1146 77.3073 26.9844 77.8906 26.9844C78.4844 26.9844 79 27.1354 79.4375 27.4375C79.875 27.7292 80.2448 28.1042 80.5469 28.5625C80.849 29.0208 81.0885 29.526 81.2656 30.0781C81.4427 30.6198 81.5625 31.1406 81.625 31.6406ZM83.0938 36.2031V26.9844H84.1875V35.8281H89.8125V36.9531H83.7188L83.0938 36.2031ZM91.2188 36.2031V26.9844H92.3125V35.8281H97.9375V36.9531H91.8438L91.2188 36.2031ZM103 36.6719H99.2812V35.7969H100.5V27.9844H98.75V27.1406L102.188 26.9219V27.8281L101.062 27.9219V35.7344H103V36.6719ZM105.531 29.3594V37.0469H104.312V27.3594L105.406 27.2031L110.156 35.6406V26.8281L111.562 26.9844V36.7656L109.812 37.0469L105.531 29.3594ZM118.406 27.5781L117.969 28.5156C117.917 28.4531 117.818 28.3854 117.672 28.3125C117.526 28.2292 117.349 28.1562 117.141 28.0938C116.943 28.0312 116.724 27.9792 116.484 27.9375C116.245 27.8854 116.01 27.8594 115.781 27.8594C115.552 27.8594 115.333 27.8854 115.125 27.9375C114.927 27.9792 114.75 28.0521 114.594 28.1562C114.438 28.2604 114.312 28.401 114.219 28.5781C114.135 28.7552 114.094 28.9688 114.094 29.2188C114.094 29.5521 114.219 29.8854 114.469 30.2188C114.729 30.5417 115.125 30.7969 115.656 30.9844C116.344 31.2552 116.88 31.5417 117.266 31.8438C117.661 32.1458 117.953 32.4479 118.141 32.75C118.339 33.0521 118.464 33.349 118.516 33.6406C118.568 33.9323 118.594 34.2031 118.594 34.4531C118.562 35.3177 118.286 35.9896 117.766 36.4688C117.245 36.9479 116.474 37.1875 115.453 37.1875C115.036 37.1875 114.578 37.1406 114.078 37.0469C113.589 36.9635 113.052 36.8281 112.469 36.6406L112.812 35.5469C113.135 35.6719 113.536 35.7917 114.016 35.9062C114.505 36.0104 114.99 36.0625 115.469 36.0625C115.75 36.0625 116.016 36.0365 116.266 35.9844C116.516 35.9323 116.734 35.849 116.922 35.7344C117.109 35.6094 117.255 35.4479 117.359 35.25C117.474 35.0521 117.531 34.8073 117.531 34.5156C117.521 34.0156 117.401 33.6146 117.172 33.3125C116.953 33.0104 116.677 32.7604 116.344 32.5625C116.01 32.3646 115.651 32.1875 115.266 32.0312C114.88 31.875 114.521 31.6875 114.188 31.4688C113.865 31.25 113.594 30.974 113.375 30.6406C113.156 30.3073 113.047 29.8646 113.047 29.3125C113.047 28.8646 113.115 28.4844 113.25 28.1719C113.385 27.8594 113.573 27.6094 113.812 27.4219C114.062 27.224 114.349 27.0833 114.672 27C115.005 26.9062 115.365 26.8594 115.75 26.8594C116.25 26.8594 116.734 26.9271 117.203 27.0625C117.672 27.1875 118.073 27.3594 118.406 27.5781Z" fill="#232323"/>
</svg>
