<svg width="41" height="41" viewBox="0 0 41 41" fill="none" xmlns="http://www.w3.org/2000/svg">
<path d="M20.5 11.7344C18.7663 11.7344 17.0716 12.2485 15.6301 13.2116C14.1886 14.1748 13.0651 15.5438 12.4016 17.1455C11.7382 18.7472 11.5646 20.5097 11.9028 22.2101C12.241 23.9105 13.0759 25.4723 14.3018 26.6982C15.5277 27.9241 17.0895 28.759 18.7899 29.0972C20.4903 29.4354 22.2528 29.2618 23.8545 28.5984C25.4562 27.9349 26.8252 26.8114 27.7883 25.3699C28.7515 23.9284 29.2656 22.2337 29.2656 20.5C29.263 18.176 28.3386 15.948 26.6953 14.3047C25.052 12.6614 22.824 11.737 20.5 11.7344ZM20.5 27.6719C19.0815 27.6719 17.6949 27.2513 16.5155 26.4632C15.3361 25.6751 14.4169 24.555 13.8741 23.2446C13.3312 21.9341 13.1892 20.492 13.4659 19.1008C13.7427 17.7096 14.4257 16.4317 15.4287 15.4287C16.4317 14.4257 17.7096 13.7427 19.1008 13.4659C20.492 13.1892 21.9341 13.3312 23.2446 13.8741C24.555 14.4169 25.6751 15.3361 26.4632 16.5155C27.2513 17.6949 27.6719 19.0815 27.6719 20.5C27.6719 22.4021 26.9163 24.2263 25.5713 25.5713C24.2263 26.9163 22.4021 27.6719 20.5 27.6719ZM30.0625 0.578125H10.9375C8.19099 0.581289 5.55788 1.67374 3.61581 3.61581C1.67374 5.55788 0.581289 8.19099 0.578125 10.9375V30.0625C0.581289 32.809 1.67374 35.4421 3.61581 37.3842C5.55788 39.3263 8.19099 40.4187 10.9375 40.4219H30.0625C32.809 40.4187 35.4421 39.3263 37.3842 37.3842C39.3263 35.4421 40.4187 32.809 40.4219 30.0625V10.9375C40.4187 8.19099 39.3263 5.55788 37.3842 3.61581C35.4421 1.67374 32.809 0.581289 30.0625 0.578125ZM38.8281 30.0625C38.8255 32.3865 37.9011 34.6145 36.2578 36.2578C34.6145 37.9011 32.3865 38.8255 30.0625 38.8281H10.9375C8.61352 38.8255 6.38548 37.9011 4.74218 36.2578C3.09888 34.6145 2.17451 32.3865 2.17188 30.0625V10.9375C2.17451 8.61352 3.09888 6.38548 4.74218 4.74218C6.38548 3.09888 8.61352 2.17451 10.9375 2.17188H30.0625C32.3865 2.17451 34.6145 3.09888 36.2578 4.74218C37.9011 6.38548 38.8255 8.61352 38.8281 10.9375V30.0625ZM32.4531 10.1406C32.4531 10.4558 32.3597 10.764 32.1845 11.0261C32.0094 11.2882 31.7605 11.4924 31.4693 11.6131C31.1781 11.7337 30.8576 11.7652 30.5484 11.7038C30.2393 11.6423 29.9553 11.4905 29.7324 11.2676C29.5095 11.0447 29.3577 10.7607 29.2962 10.4516C29.2348 10.1424 29.2663 9.82194 29.3869 9.53072C29.5076 9.2395 29.7118 8.99059 29.9739 8.81547C30.236 8.64035 30.5442 8.54688 30.8594 8.54688C31.2821 8.54688 31.6874 8.71479 31.9863 9.01367C32.2852 9.31256 32.4531 9.71794 32.4531 10.1406Z" fill="url(#paint0_linear_290_314)"/>
<defs>
<linearGradient id="paint0_linear_290_314" x1="4" y1="-11.5" x2="21" y2="49.5" gradientUnits="userSpaceOnUse">
<stop stop-color="#4238E9"/>
<stop offset="0.407682" stop-color="#FF19A9"/>
<stop offset="0.688514" stop-color="#FF4036"/>
<stop offset="0.954483" stop-color="#FFD460"/>
</linearGradient>
</defs>
</svg>
