<svg width="41" height="41" viewBox="0 0 41 41" fill="none" xmlns="http://www.w3.org/2000/svg">
<path d="M38.7084 28.566L28.9324 24.1914C28.5534 24.0274 28.1395 23.9604 27.7281 23.9966C27.3168 24.0327 26.9209 24.1709 26.5764 24.3985C26.5488 24.4159 26.5225 24.4353 26.4977 24.4564L21.3633 28.8331C21.249 28.9028 21.1194 28.9432 20.9857 28.9508C20.8521 28.9583 20.7187 28.9329 20.5973 28.8765C17.2351 27.2534 13.7549 23.8001 12.1318 20.4773C12.0744 20.3568 12.0477 20.2239 12.0542 20.0906C12.0607 19.9573 12.1002 19.8277 12.169 19.7133L16.5581 14.4941C16.5788 14.4692 16.5974 14.4423 16.6161 14.4154C16.843 14.0713 16.9807 13.6762 17.0168 13.2656C17.053 12.8551 16.9864 12.442 16.8231 12.0635L12.4403 2.30408C12.2287 1.80978 11.8624 1.39747 11.3965 1.12907C10.9306 0.860656 10.3903 0.750635 9.85651 0.815525C7.25116 1.15903 4.85995 2.43919 3.1295 4.41691C1.39905 6.39462 0.447701 8.93463 0.453148 11.5625C0.453148 27.5453 13.4547 40.5469 29.4375 40.5469C32.0654 40.5523 34.6054 39.601 36.5831 37.8705C38.5608 36.1401 39.841 33.7489 40.1845 31.1435C40.2489 30.6122 40.14 30.0743 39.8741 29.6099C39.6081 29.1454 39.1992 28.7793 38.7084 28.566ZM38.5469 30.9365C38.2545 33.1429 37.1686 35.1673 35.4921 36.6313C33.8155 38.0952 31.6632 38.8983 29.4375 38.8906C14.3698 38.8906 2.1094 26.6302 2.1094 11.5625C2.10169 9.33682 2.90487 7.18451 4.36879 5.50798C5.8327 3.83145 7.85711 2.7455 10.0635 2.45314C10.0966 2.45109 10.1298 2.45109 10.1629 2.45314C10.3263 2.45454 10.4856 2.50422 10.6208 2.59595C10.756 2.68768 10.861 2.81736 10.9227 2.96865L15.2931 12.7281C15.3441 12.8474 15.3664 12.977 15.3581 13.1064C15.3499 13.2359 15.3113 13.3616 15.2455 13.4734L10.8585 18.6906C10.8378 18.7175 10.8171 18.7424 10.7985 18.7713C10.5648 19.1288 10.4271 19.5404 10.3988 19.9665C10.3706 20.3926 10.4526 20.8188 10.637 21.204C12.4361 24.887 16.1461 28.5701 19.8706 30.3692C20.2584 30.5525 20.687 30.6322 21.1148 30.6006C21.5425 30.5691 21.9548 30.4273 22.3115 30.1891L22.3881 30.1311L27.5287 25.7586C27.6387 25.6915 27.763 25.6514 27.8915 25.6416C28.02 25.6319 28.149 25.6529 28.2678 25.7028L38.0417 30.0835C38.2067 30.1522 38.345 30.2723 38.4361 30.4261C38.5271 30.5798 38.566 30.7589 38.5469 30.9365Z" fill="#232323"/>
</svg>
